<?xml version="1.0" encoding="utf-8"?>
<!-- Generator: Adobe Illustrator 27.0.0, SVG Export Plug-In . SVG Version: 6.00 Build 0)  -->
<svg version="1.1" id="Layer_1" xmlns="http://www.w3.org/2000/svg" xmlns:xlink="http://www.w3.org/1999/xlink" x="0px" y="0px"
	 viewBox="0 0 466.3 140.3" style="enable-background:new 0 0 466.3 140.3;" xml:space="preserve">
<style type="text/css">
	.st0{fill:#F3971B;}
</style>
<g>
	<path d="M103.6,34.7v43.6c0,1.5-1.2,2.7-2.7,2.7H87.2c-1.5,0-2.7-1.2-2.7-2.7v-71c0-1.5,1.2-2.7,2.7-2.7h12.7
		c1.5,0,2.7,1.2,2.7,2.7v10c0,0,4.6-14.3,18.1-14.3c0,0,13.4-1.6,18.8,13.2c0,0,4.6-13.2,18.4-13.2c0,0,20.5-1.2,20.5,20l0.2,11.7
		v43.6c0,1.5-1.2,2.7-2.7,2.7l0,0h-13.8c-1.5,0-2.7-1.2-2.7-2.7l-0.1-47.6c0.4-10.8-8.3-10-8.3-10c-11,0.2-9.9,14-9.9,14v43.6
		c0,1.5-1.2,2.7-2.7,2.7h-13.8c-1.5,0-2.7-1.2-2.7-2.7V31.9c0,0,0.8-11.2-9-11.2C113,20.8,103.3,19.5,103.6,34.7z M458.6,34.5v43.6
		c0,1.5-1.2,2.7-2.7,2.7l-14.3,0.3c-1.5,0-2.7-1.2-2.7-2.7V31.9c0,0,0.8-11.2-9-11.2c0,0-9.4-0.5-9.4,17v40.5c0,1.5-1.2,2.7-2.7,2.7
		h-13.8c-1.5,0-2.7-1.2-2.7-2.7v-71c0-1.5,1.2-2.7,2.7-2.7h12.7c1.5,0,2.7,1.2,2.7,2.7c0,0,0,0,0,0v10c0,0,4.6-14.3,18.1-14.3
		c0,0,14.5-2.2,19.4,12.9C457,16,458.6,19.1,458.6,34.5L458.6,34.5z M359.2,2.8c-17.6,0-31.9,14.8-31.9,39.8c0,22,11,39.8,31.9,39.8
		c19.7,0,31.9-17.8,31.9-39.8C391.1,18.1,376.8,2.8,359.2,2.8z M370.3,43.5c0,9.4-1.2,14.4-1.2,14.4c-1.7,9.9-8.9,10-10,9.9
		c-1.1,0-8.4-0.1-9.9-9.9c0,0-1.2-5-1.2-14.4v-1.6c0-9.4,1.2-14.4,1.2-14.4c1.5-9.8,8.8-9.9,9.9-9.9c1.1-0.1,8.3,0,10,9.9
		c0,0,1.2,5,1.2,14.4V43.5z M319.3,17.2V7c0-1.5-1.2-2.7-2.7-2.7h-45.5c-1.5,0-2.7,1.2-2.7,2.7c0,0,0,0,0,0v10.1
		c0,1.5,1.2,2.7,2.7,2.7h23.7l-28.1,40.8c0,0-1.1,1.7-1.1,3.5v12.4c0,0-0.2,4.3,4.6,1.8c0,0,8.6-5.2,22.9-5.2c0,0,14.2-0.2,23.6,5.6
		c0,0,3.9,1.8,3.9-2.1V65.8c0,0,0.4-2.9-3.4-4.6c0,0-10.9-6-25.2-5L319.3,17.2z M73.9,68.3l-4.3-6.6c-1.4-2.4-1.3-5.2-1.3-5.2V26.2
		C68.9,0.1,39.9,2.3,39.9,2.3c-25.8,0-29.6,20.1-29.6,20.1c-1.1,4,2.1,4.1,2.1,4.1L25,27.8c0,0,2.1,0.5,2.9-2.1
		c0,0,1.7-8.8,10.9-8.8c10.1,0,10,8.7,10,8.7v7.3c-20.2,0.7-29.5,6.3-29.5,6.3C6.9,46.2,7.7,60.2,7.7,60.2
		c0,22.8,21.7,21.8,21.7,21.8c13.9,0,22.1-10.2,22.1-10.2c2.4,4.3,7,8.4,7,8.4c2.3,2.4,4.6,0.4,4.6,0.4L73.3,72
		C75.6,70.3,73.9,68.3,73.9,68.3z M36.2,68c-6.5,0-9-6.5-7.9-12.9c1.1-6.4,6.7-11.4,20.5-11.3v3.9C49.3,64.7,41.7,68,36.2,68
		L36.2,68z M256.9,68.3l-4.3-6.6c-1.4-2.4-1.3-5.2-1.3-5.2V26.2c0.6-26.2-28.4-23.9-28.4-23.9c-25.8,0-29.6,20.1-29.6,20.1
		c-1.1,4,2.1,4.1,2.1,4.1l12.6,1.3c0,0,2.1,0.5,2.9-2.1c0,0,1.7-8.8,10.9-8.8c10.1,0,10,8.7,10,8.7v7.3c-20.1,0.7-29.5,6.3-29.5,6.3
		c-12.4,7.1-11.7,21.1-11.7,21.1c0,22.8,21.7,21.8,21.7,21.8c13.9,0,22.1-10.2,22.1-10.2c2.4,4.3,7,8.4,7,8.4
		c2.3,2.4,4.6,0.4,4.6,0.4l10.2-8.7C258.6,70.3,256.9,68.3,256.9,68.3L256.9,68.3z M219.2,68c-6.5,0-9-6.5-7.9-12.9
		c1.1-6.4,6.7-11.4,20.5-11.3v3.9C232.3,64.7,224.7,68,219.2,68L219.2,68z"/>
	<g>
		<path class="st0" d="M291.6,125.6c0,0-1.2,2,0.3,2.5c0,0,1.6,0.6,3.6-1.2c0,0,14.5-12.7,14.9-35.8c0,0,0.1-2.9-1.1-3.7
			c0,0-4.6-4-20.9-2.8c0,0-14.3,1-22.1,7.9c0,0-0.7,0.6-0.7,1.4c0,0-0.2,1.7,4.1,1c0,0,14.3-2,22.8-1c0,0,4.4,0.5,5.6,2
			c0,0,2,1.7,1,7.2C299,103,296.1,117,291.6,125.6L291.6,125.6z"/>
		<path class="st0" d="M288.7,103.4c0,0,2.1,2.8-1.3,5.1c0,0-36.8,29.4-98.5,29.4c0,0-63.5,3.1-116.6-45.1c0,0-1.9-1.6-0.7-3.2
			c0,0,1-1.4,3.7,0.1c0,0,49.9,31.1,115.4,31.1c0,0,45.6,1.8,92.3-18.2C283.1,102.7,286.8,100.8,288.7,103.4L288.7,103.4z"/>
	</g>
</g>
</svg>
