<?xml version="1.0" encoding="utf-8"?>
<!-- Generator: Adobe Illustrator 27.0.0, SVG Export Plug-In . SVG Version: 6.00 Build 0)  -->
<svg version="1.1" id="Layer_1" xmlns="http://www.w3.org/2000/svg" xmlns:xlink="http://www.w3.org/1999/xlink" x="0px" y="0px"
	 viewBox="0 0 442.4 100.9" style="enable-background:new 0 0 442.4 100.9;" xml:space="preserve">
<style type="text/css">
	.st0{fill:#EF551A;}
	.st1{fill:#FFFFFD;}
</style>
<g>
	<g>
		<path class="st0" d="M370.7,56.9l-0.5-1.7c-0.8-2.1-1.3-3.9-1.6-5.2h0c-0.3,1.4-0.9,3.2-1.6,5.4l-0.5,1.5l-1.7,5
			c-0.3,0.9,0.4,1.8,1.3,1.8h4.9c1,0,1.6-0.9,1.3-1.8L370.7,56.9z"/>
		<path class="st0" d="M405.4,25.5H287.6v64.4c0,4.3,3.5,7.8,7.8,7.8h110c19.9,0,36.1-16.2,36.1-36.1v0
			C441.5,41.6,425.4,25.5,405.4,25.5z M348,76.8c0,0.8-0.6,1.4-1.4,1.4h-4.2c-0.8,0-1.4-0.6-1.4-1.4V58.1c0-3.2,0.1-6.4,0.2-9.6H341
			c-0.9,3.7-1.9,7.2-2.8,10.6l-4.9,18.1c-0.2,0.6-0.7,1-1.4,1h-6.2c-0.6,0-1.2-0.4-1.4-1l-4.9-18.4l-1-3.8l-1.8-6.5h-0.1l0.1,5.1
			c0,0.8,0,1.5,0,2.3c0,0.7,0,1.3,0,1.7c0,0.4,0,0.6,0,0.7v18.6c0,0.8-0.6,1.4-1.4,1.4h-4.2c-0.8,0-1.4-0.6-1.4-1.4V44.5
			c0-0.8,0.6-1.4,1.4-1.4h9.7c0.6,0,1.2,0.4,1.4,1l4.1,15.6c1.1,4.2,2,8,2.6,11.2h0.1l1.2-5.3c0.2-0.8,0.7-2.7,1.4-5.7l4.1-15.7
			c0.2-0.6,0.7-1,1.4-1h9.5c0.8,0,1.4,0.6,1.4,1.4V76.8z M383.8,78.2h-5.1c-0.6,0-1.1-0.4-1.3-1l-2.1-6.3c-0.2-0.6-0.7-1-1.3-1
			h-10.8c-0.6,0-1.1,0.4-1.3,1l-2,6.3c-0.2,0.6-0.7,1-1.3,1h-5c-1,0-1.7-1-1.3-1.9L364.4,44c0.2-0.5,0.7-0.9,1.3-0.9h5.9
			c0.6,0,1.1,0.4,1.3,0.9l12.2,32.4C385.5,77.3,384.8,78.2,383.8,78.2z M419.3,76.8c0,0.8-0.6,1.4-1.4,1.4h-3.8
			c-0.7,0-1.3-0.6-1.4-1.3c-0.1-1.1-1.4-1.7-2.3-0.9c-0.7,0.6-1.5,1.1-2.4,1.5c-1.9,0.9-3.9,1.3-6.2,1.3c-5.2,0-9.2-1.6-12.2-4.8
			c-2.9-3.2-4.4-7.7-4.4-13.4c0-3.6,0.7-6.8,2.1-9.5c1.4-2.7,3.4-4.9,6.1-6.4s5.9-2.3,9.5-2.3c4.1,0,7.6,1,10.4,3
			c2.4,1.7,4.1,3.9,5.1,6.7c0.3,0.8-0.2,1.7-1.1,1.9l-5.1,1c-0.7,0.1-1.4-0.3-1.6-0.9c-1.2-3.7-3.8-5.6-7.7-5.6
			c-3.6,0-6.1,1.1-7.7,3.3c-1.5,2-2.2,4.9-2.2,8.9c0,4.1,0.7,7,2,8.9c0.8,1.1,1.9,2,3.1,2.5c1.3,0.5,2.9,0.8,4.8,0.8
			c2.5,0,4.6-0.7,6.2-2c1.2-1,2-2.3,2.4-3.9c0.3-0.9-0.4-1.8-1.3-1.8h-7.2c-0.8,0-1.4-0.6-1.4-1.4v-3.4c0-0.8,0.6-1.4,1.4-1.4h14.8
			c0.8,0,1.4,0.6,1.4,1.4V76.8z"/>
	</g>
	<g>
		<path class="st1" d="M188.1,35.5l-0.5-1.7c-0.8-2.1-1.3-3.9-1.6-5.2h0c-0.3,1.4-0.9,3.2-1.6,5.4l-0.5,1.5l-1.7,5
			c-0.3,0.9,0.4,1.8,1.3,1.8h4.9c1,0,1.6-0.9,1.3-1.8L188.1,35.5z"/>
		<path class="st1" d="M225.8,29c-0.4-0.4-0.9-0.7-1.5-0.9c-0.6-0.2-1.3-0.3-2-0.4c-0.7-0.1-1.5-0.1-2.5-0.1h-4.1
			c-0.8,0-1.4,0.6-1.4,1.4v7.2c0,0.8,0.6,1.4,1.4,1.4h4c1.2,0,2.2-0.1,3.1-0.2s1.6-0.4,2.2-0.7c0.7-0.4,1.2-0.9,1.5-1.5
			c0.3-0.7,0.5-1.5,0.5-2.6c0-0.8-0.1-1.5-0.3-2.1S226.2,29.4,225.8,29z"/>
		<path class="st1" d="M71.2,30.4c-4.7,3.4-5.8,10.1-2.4,14.8c3.1,4.3,8.7,5.6,13.3,3.3c0.5-0.3,1-0.6,1.5-0.9
			c0.7-0.5,1.4-1.1,1.9-1.8c3.1-3.6,3.4-9,0.5-13C82.6,28.1,75.9,27,71.2,30.4z"/>
		<path class="st1" d="M165.5,31c-0.1-0.3-0.1-0.5-0.2-0.8c-0.3-0.8-0.9-1.5-1.7-1.9c-0.1,0-0.2-0.1-0.3-0.1
			c-0.3-0.1-0.8-0.3-1.3-0.3s-1.1-0.1-1.6-0.1c-0.5,0-1.1,0-1.9,0h-3.8c-0.8,0-1.4,0.6-1.4,1.4v7.7c0,0.8,0.6,1.4,1.4,1.4h3.8
			c1.1,0,1.9,0,2.6-0.1c0.7-0.1,1.3-0.2,2-0.4c0.7-0.2,1.2-0.5,1.5-0.9c0.4-0.4,0.6-0.9,0.9-1.6c0.2-0.6,0.4-1.4,0.4-2.3
			c0-0.1,0-0.1,0-0.2C165.7,32.1,165.7,31.5,165.5,31z"/>
		<path class="st1" d="M279.9,3.2H37C17.1,3.2,0.9,19.4,0.9,39.3v0c0,19.9,16.2,36.1,36.1,36.1h250.7V11
			C287.7,6.7,284.2,3.2,279.9,3.2z M56.7,48.3c-1.3,2.7-3.2,4.8-5.5,6.4c-2.8,1.8-6.1,2.8-10,2.8c-5.6,0-10-1.6-13.1-4.7
			c-3.1-3.2-4.6-7.6-4.6-13.4c0-3.6,0.7-6.8,2.1-9.5c1.4-2.7,3.4-4.9,6.1-6.4s5.9-2.3,9.5-2.3c4,0,7.5,1,10.3,3
			c2.5,1.7,4.2,4.1,5.2,7.2c0.3,0.8-0.2,1.7-1.1,1.8l-4.9,0.9c-0.7,0.1-1.4-0.3-1.6-1c-0.5-1.7-1.3-3.1-2.4-4.1
			c-1.4-1.3-3.2-1.9-5.6-1.9c-3.5,0-6,0.9-7.5,2.8c-1.6,2.1-2.4,5.2-2.4,9.4c0,2.2,0.1,3.9,0.4,5.3c0.3,1.4,0.8,2.6,1.5,3.6
			c1.6,2.2,4.2,3.4,7.9,3.4c2.2,0,4.1-0.6,5.5-1.8c1.1-0.9,2-2.2,2.6-3.8c0.2-0.7,1-1.1,1.7-0.9l4.9,1.3
			C56.7,46.6,57.1,47.5,56.7,48.3z M101,67l-4,2.8c-0.8,0.6-2,0.4-2.6-0.4l-7.2-10c-0.6-0.8-0.4-2,0.4-2.6l0.2-0.2l-1.6-2.3
			c-7.8,4.5-17.9,2.5-23.2-5c-5.7-7.9-3.9-19,4-24.7c7.9-5.7,19-3.9,24.7,4c5.2,7.2,4.2,17-2,23.1l1.7,2.4l0.2-0.2
			c0.8-0.6,2-0.4,2.6,0.4l7.2,10C102,65.2,101.8,66.4,101,67z M138.8,55.5c0,0.8-0.6,1.4-1.4,1.4h-4.2c-0.8,0-1.4-0.6-1.4-1.4V36.7
			c0-3.2,0.1-6.4,0.2-9.6h-0.1c-0.9,3.7-1.9,7.2-2.8,10.6L124,55.9c-0.2,0.6-0.7,1-1.4,1h-6.2c-0.6,0-1.2-0.4-1.4-1l-4.9-18.4
			l-1-3.8l-1.8-6.5h-0.1l0.1,5.1c0,0.8,0,1.5,0,2.3c0,0.7,0,1.3,0,1.7c0,0.4,0,0.6,0,0.7v18.6c0,0.8-0.6,1.4-1.4,1.4h-4.2
			c-0.8,0-1.4-0.6-1.4-1.4V23.1c0-0.8,0.6-1.4,1.4-1.4h9.7c0.6,0,1.2,0.4,1.4,1l4.1,15.6c1.1,4.2,2,8,2.6,11.2h0.1l1.2-5.3
			c0.2-0.8,0.7-2.7,1.4-5.7l4.1-15.7c0.2-0.6,0.7-1,1.4-1h9.5c0.8,0,1.4,0.6,1.4,1.4V55.5z M158.6,44.1h-4c-0.8,0-1.4,0.6-1.4,1.4
			v10c0,0.8-0.6,1.4-1.4,1.4h-4.8c-0.8,0-1.4-0.6-1.4-1.4V23.1c0-0.8,0.6-1.4,1.4-1.4h11.6c3,0,5.5,0.3,7.6,0.8c2,0.6,3.7,1.6,5,3.1
			c1.4,1.6,2.2,4,2.2,7.1c0,3-0.7,5.3-2,7c-1.3,1.7-3.1,2.8-5.4,3.4C164,43.8,161.5,44.1,158.6,44.1z M201.2,56.9h-5.1
			c-0.6,0-1.1-0.4-1.3-1l-2.1-6.3c-0.2-0.6-0.7-1-1.3-1h-10.8c-0.6,0-1.1,0.4-1.3,1l-2,6.3c-0.2,0.6-0.7,1-1.3,1h-5
			c-1,0-1.7-1-1.3-1.9l12.2-32.4c0.2-0.5,0.7-0.9,1.3-0.9h5.9c0.6,0,1.1,0.4,1.3,0.9L202.5,55C202.8,55.9,202.2,56.9,201.2,56.9z
			 M235.6,56.9h-7.3c-0.6,0-1.1-0.3-1.3-0.9c-0.3-0.7-0.5-1.4-0.7-2.1c-0.2-1.2-0.2-2.8-0.2-4.9c0-1.9-0.5-3.3-1.5-4.2
			c-1-0.9-2.5-1.3-4.5-1.3h-4.4c-0.8,0-1.4,0.6-1.4,1.4v10.5c0,0.8-0.6,1.4-1.4,1.4h-4.8c-0.8,0-1.4-0.6-1.4-1.4V23.1
			c0-0.8,0.6-1.4,1.4-1.4h12.3c1.7,0,3.3,0.1,4.6,0.3c1.3,0.2,2.6,0.5,3.9,1c1.2,0.5,2.2,1.1,3,1.9c0.8,0.8,1.4,1.8,1.9,3.1
			s0.7,2.7,0.7,4.4c0,2.1-0.5,3.9-1.5,5.4c-0.6,0.9-1.2,1.6-2,2.2c-0.7,0.6-0.8,1.7-0.1,2.2c0.7,0.5,1.2,1.1,1.6,1.7
			c0.7,1.2,1.1,2.8,1.1,4.8c0,1.9,0.1,3.4,0.4,4.6c0.3,1.2,0.8,2.3,1.6,3.4L235.6,56.9z M265.2,26.4c0,0.8-0.6,1.4-1.4,1.4h-14.3
			c-0.8,0-1.4,0.6-1.4,1.4v5.5c0,0.8,0.6,1.4,1.4,1.4h12.4c0.8,0,1.4,0.6,1.4,1.4v3.3c0,0.8-0.6,1.4-1.4,1.4h-12.4
			c-0.8,0-1.4,0.6-1.4,1.4v5.8c0,0.8,0.6,1.4,1.4,1.4h14.3c0.8,0,1.4,0.6,1.4,1.4v3.3c0,0.8-0.6,1.4-1.4,1.4h-21.9
			c-0.8,0-1.4-0.6-1.4-1.4V23.1c0-0.8,0.6-1.4,1.4-1.4h21.9c0.8,0,1.4,0.6,1.4,1.4V26.4z"/>
	</g>
</g>
</svg>
