<svg xmlns="http://www.w3.org/2000/svg" viewBox="0 0 24 24" role="img" aria-labelledby="whatsappTitle">
  <title id="whatsappTitle">WhatsApp</title>
  <path fill="#25D366" d="M12 2C6.486 2 2 6.262 2 11.5c0 1.86.568 3.645 1.646 5.183L2.5 22l5.49-1.099A10.19 10.19 0 0 0 12 21c5.514 0 10-4.262 10-9.5S17.514 2 12 2Z"/>
  <path fill="#FFF" d="M17.615 14.432c-.298-.145-1.761-.855-2.034-.952-.273-.097-.471-.145-.67.145-.199.29-.769.952-.943 1.146-.174.193-.348.217-.645.072-.298-.145-1.256-.448-2.392-1.428-.883-.763-1.48-1.705-1.654-1.995-.174-.29-.018-.446.127-.59.13-.128.298-.338.447-.507.149-.169.199-.29.298-.483.099-.193.05-.362-.025-.507-.075-.145-.67-1.588-.918-2.174-.241-.571-.486-.493-.67-.502l-.57-.01c-.199 0-.521.072-.794.362-.273.29-1.042 1.001-1.042 2.44s1.067 2.83 1.216 3.023c.149.193 2.101 3.288 5.09 4.61.711.306 1.265.489 1.697.626.713.225 1.362.193 1.875.117.572-.084 1.761-.72 2.009-1.415.248-.695.248-1.292.174-1.415-.075-.121-.273-.193-.57-.338Z"/>
</svg>
